<?xml version="1.0" standalone="no"?>
<!DOCTYPE svg PUBLIC "-//W3C//DTD SVG 20010904//EN"
 "http://www.w3.org/TR/2001/REC-SVG-20010904/DTD/svg10.dtd">
<svg version="1.0" xmlns="http://www.w3.org/2000/svg"
 width="900.000000pt" height="397.000000pt" viewBox="0 0 900.000000 397.000000"
 preserveAspectRatio="xMidYMid meet">

<g transform="translate(0.000000,397.000000) scale(0.100000,-0.100000)"
fill="#000000" stroke="none">
<path d="M4006 3859 c-60 -7 -77 -19 -74 -54 1 -17 1 -17 5 3 2 12 12 26 22
31 24 13 119 17 131 5 5 -5 11 -34 13 -64 l4 -55 -1 59 c-1 74 -16 86 -100 75z"/>
<path d="M4312 3828 c-7 -7 -11 -23 -11 -37 1 -24 2 -24 8 4 5 25 12 31 41 36
35 6 35 6 5 8 -17 0 -36 -4 -43 -11z"/>
<path d="M4457 3796 c10 -13 20 -20 21 -15 5 12 -17 39 -30 39 -5 0 -1 -11 9
-24z"/>
<path d="M3731 3770 c14 -31 19 -36 19 -24 0 6 -7 19 -16 30 -14 18 -14 18 -3
-6z"/>
<path d="M3613 3764 c-43 -19 -47 -41 -19 -100 30 -60 34 -51 5 11 -24 51 -21
58 29 85 42 22 33 25 -15 4z"/>
<path d="M3943 3740 c0 -25 2 -35 4 -22 2 12 2 32 0 45 -2 12 -4 2 -4 -23z"/>
<path d="M4456 3734 c-4 -14 -5 -28 -3 -31 3 -2 8 8 11 23 4 14 5 28 3 31 -3
2 -8 -8 -11 -23z"/>
<path d="M4291 3734 c0 -11 3 -14 6 -6 3 7 2 16 -1 19 -3 4 -6 -2 -5 -13z"/>
<path d="M3751 3714 c-1 -19 31 -64 46 -64 4 0 -3 10 -14 23 -12 12 -23 31
-26 42 -5 19 -5 19 -6 -1z"/>
<path d="M4110 3712 c0 -10 49 -46 55 -40 1 2 -11 13 -26 26 -16 13 -29 19
-29 14z"/>
<path d="M4738 3689 c59 -29 81 -56 66 -81 -5 -10 -4 -10 5 -2 23 21 6 49 -49
81 -30 18 -61 33 -69 33 -8 0 13 -14 47 -31z"/>
<path d="M4269 3693 c-13 -16 -12 -17 4 -4 9 7 17 15 17 17 0 8 -8 3 -21 -13z"/>
<path d="M4644 3671 c-9 -23 -28 -50 -42 -61 -13 -11 -20 -20 -15 -20 22 0 92
104 79 117 -3 3 -13 -13 -22 -36z"/>
<path d="M3924 3679 c-3 -6 -20 -17 -38 -25 -17 -7 -23 -13 -14 -14 16 0 81
49 66 50 -4 0 -10 -5 -14 -11z"/>
<path d="M4188 3663 c6 -2 18 -2 25 0 6 3 1 5 -13 5 -14 0 -19 -2 -12 -5z"/>
<path d="M4450 3648 c0 -9 5 -20 10 -23 13 -8 13 5 0 25 -8 13 -10 13 -10 -2z"/>
<path d="M3375 3613 c11 -2 31 -20 45 -40 32 -47 48 -63 63 -63 7 0 4 5 -5 11
-10 5 -31 30 -48 54 -22 32 -37 45 -53 44 -20 -2 -20 -2 -2 -6z"/>
<path d="M4480 3611 c0 -9 30 -24 36 -18 2 1 -6 8 -16 15 -11 7 -20 8 -20 3z"/>
<path d="M3302 3574 c-41 -35 -53 -66 -31 -79 6 -4 24 -25 40 -47 16 -23 29
-37 29 -31 0 5 -16 28 -35 50 -19 23 -35 48 -35 56 0 9 19 31 43 51 23 20 39
36 36 36 -3 0 -24 -16 -47 -36z"/>
<path d="M4037 3605 c-1 -2 -27 -5 -57 -9 -119 -13 -207 -39 -327 -97 -252
-120 -448 -357 -528 -634 -22 -78 -48 -250 -40 -265 1 -3 -10 -15 -25 -27 -24
-20 -29 -21 -40 -8 -10 13 -10 19 4 33 21 24 20 30 -6 51 l-22 18 22 28 c30
38 28 86 -4 124 -14 17 -30 31 -34 31 -5 0 5 -13 21 -29 45 -46 41 -90 -16
-148 -50 -50 -83 -54 -65 -8 13 35 14 32 -21 51 -32 16 -48 9 -49 -23 0 -17
-15 -24 -35 -17 -13 5 -15 14 -10 40 5 28 3 34 -12 34 -10 0 -28 3 -40 6 -20
6 -23 3 -23 -23 0 -36 -5 -42 -31 -36 -13 4 -19 14 -19 35 0 28 -2 29 -37 26
-36 -3 -38 -5 -36 -34 2 -25 -2 -33 -18 -37 -16 -4 -23 1 -31 25 -9 25 -14 29
-37 23 -38 -9 -46 -21 -33 -50 10 -21 9 -26 -9 -36 -23 -12 -22 -12 -38 19
-14 26 -24 27 -57 6 -23 -16 -24 -18 -9 -40 19 -30 19 -40 -2 -48 -9 -4 -25 2
-38 14 l-21 20 -22 -23 c-27 -29 -27 -34 1 -57 20 -17 21 -20 6 -35 -16 -16
-18 -16 -43 0 -30 20 -28 21 -49 -21 -16 -32 -16 -32 13 -44 25 -11 28 -15 18
-35 -9 -20 -14 -22 -35 -12 -27 12 -39 4 -48 -36 -7 -24 -4 -28 24 -33 32 -7
38 -18 22 -43 -5 -8 -19 -12 -35 -9 -19 4 -26 1 -26 -11 0 -9 -3 -26 -6 -38
-6 -21 -3 -23 30 -23 32 0 36 -3 36 -25 0 -21 -5 -25 -31 -25 -30 0 -31 -2
-25 -31 3 -17 6 -36 6 -41 0 -5 15 -6 34 -3 28 6 34 4 39 -14 4 -17 -1 -24
-23 -34 -28 -12 -28 -13 -14 -46 11 -26 18 -32 31 -26 40 16 50 16 57 -2 5
-12 1 -22 -13 -32 -27 -17 -26 -29 1 -58 21 -23 22 -23 42 -4 19 17 23 18 40
5 19 -14 19 -14 -2 -37 -21 -22 -21 -24 -5 -39 36 -30 45 -32 63 -8 12 16 23
21 35 16 17 -6 17 -18 1 -57 -6 -12 1 -19 25 -28 41 -14 49 -14 49 2 0 25 17
39 38 33 18 -6 20 -11 11 -33 -12 -31 -11 -32 34 -40 33 -5 36 -4 39 23 2 21
9 30 26 32 19 3 22 -1 22 -27 0 -37 7 -41 50 -32 27 6 34 12 32 27 -2 10 -5
23 -5 29 -1 5 8 11 21 13 18 3 23 -2 28 -27 8 -36 5 -35 49 -17 33 14 34 16
23 41 -10 22 -9 28 3 36 21 13 27 11 40 -13 6 -13 13 -25 15 -26 5 -7 64 32
64 42 0 5 -8 18 -17 28 -15 17 -15 19 3 32 17 13 21 12 40 -5 12 -11 28 -17
36 -14 9 4 19 2 23 -4 11 -18 51 -12 71 11 l19 22 -25 -17 c-42 -29 -87 -15
-59 19 10 12 8 19 -10 38 -19 21 -20 24 -6 36 13 11 19 10 33 -4 25 -22 29
-21 47 14 21 40 19 49 -10 60 -22 8 -24 13 -15 30 9 16 15 18 30 10 29 -15 39
-12 46 15 3 14 9 25 13 25 3 0 20 -24 38 -54 41 -67 149 -184 222 -240 132
-101 317 -181 484 -207 70 -11 78 -14 84 -37 7 -30 -5 -52 -36 -64 -19 -7 -29
-2 -55 27 -39 42 -51 43 -88 8 -32 -31 -35 -45 -11 -64 15 -13 15 -12 2 8 -12
20 -12 25 3 39 20 20 53 5 64 -28 8 -24 7 -82 -2 -110 -3 -9 4 -26 15 -37 25
-25 96 -28 125 -6 11 8 25 15 30 15 6 -1 0 -7 -14 -15 -14 -8 -20 -14 -14 -15
29 -1 47 29 52 86 2 32 11 67 20 76 23 28 76 33 111 12 29 -17 43 -53 21 -55
-5 -1 -14 -2 -19 -3 -5 0 -13 -5 -18 -10 -4 -5 6 -5 25 -1 34 7 35 6 47 -49 3
-15 8 -27 10 -24 2 2 0 20 -4 41 -7 29 -6 37 5 37 10 0 14 -13 14 -45 0 -43 1
-45 30 -45 29 0 30 2 30 46 l0 45 37 -6 c20 -3 39 -7 41 -10 12 -11 -10 -35
-40 -44 -21 -6 -26 -10 -13 -10 26 -1 65 26 65 45 0 19 10 18 69 -6 61 -24
191 -118 216 -156 17 -26 18 -27 31 -9 18 25 18 40 -2 60 -11 11 -26 14 -43
11 -22 -5 -23 -4 -8 4 23 15 54 4 68 -22 9 -17 8 -28 -6 -53 -16 -32 -16 -33
13 -81 l30 -48 33 37 c19 21 42 37 54 37 24 0 55 -29 55 -51 0 -8 -6 -3 -13
11 -20 39 -54 38 -93 -5 l-33 -37 14 -56 c8 -31 15 -67 15 -79 l0 -23 -185 0
c-182 0 -185 0 -185 21 0 24 -70 99 -91 99 -8 0 1 -9 19 -20 20 -12 30 -25 26
-32 -4 -7 -3 -8 4 -4 8 5 12 0 12 -13 0 -11 4 -22 9 -26 6 -3 8 -14 6 -25 -2
-11 0 -22 6 -25 5 -4 9 0 9 7 0 9 3 9 10 -2 9 -13 10 -13 10 0 0 13 1 13 10 0
9 -13 10 -13 10 0 0 13 1 13 10 0 9 -13 10 -13 10 0 0 13 1 13 10 0 5 -8 10
-10 10 -4 0 12 45 13 56 1 4 -4 14 -1 23 6 14 10 14 10 4 -3 -9 -12 -31 -16
-89 -15 -68 1 -77 -1 -84 -19 -7 -17 -9 -17 -9 -4 -1 10 -8 16 -19 15 -14 -1
-17 -7 -14 -30 3 -20 1 -28 -7 -23 -7 5 -9 1 -4 -10 5 -13 3 -15 -8 -9 -12 8
-12 6 0 -8 12 -16 8 -22 -12 -18 -5 1 -6 -3 -3 -8 4 -5 0 -12 -6 -14 -7 -3 -8
-6 -3 -6 20 -2 86 61 81 76 -3 8 -1 11 4 8 6 -3 10 3 10 14 0 20 5 21 186 21
l187 0 -7 -52 c-4 -28 -18 -77 -31 -109 -77 -190 -245 -314 -449 -332 -16 -1
-31 -9 -33 -17 -4 -12 -3 -12 5 -2 7 11 10 11 15 -2 4 -9 1 -15 -6 -13 -7 1
-11 -3 -10 -10 2 -7 -6 -10 -17 -8 -14 3 -20 -2 -20 -15 0 -10 -4 -21 -8 -24
-5 -3 -6 9 -4 27 3 18 1 28 -4 24 -5 -5 -9 -16 -9 -25 0 -10 -7 -16 -18 -16
-10 1 -16 -3 -14 -10 3 -6 10 -10 17 -8 10 2 11 0 2 -11 -7 -8 -8 -18 -4 -23
4 -5 -3 0 -15 10 -24 20 -32 10 -10 -14 10 -12 9 -12 -6 -1 -22 17 -79 21 -90
7 -6 -7 -7 -5 -4 5 3 9 1 22 -4 30 -7 11 -9 9 -10 -8 -1 -13 -3 -27 -4 -33 -1
-5 -3 -18 -5 -27 -1 -12 -3 -13 -7 -5 -2 6 -9 10 -14 6 -5 -3 -5 -13 1 -24 9
-16 8 -18 -6 -13 -12 5 -15 3 -9 -6 6 -10 3 -11 -14 -2 -11 7 -21 17 -21 24 0
8 -4 7 -11 -3 -8 -11 -9 -9 -3 10 4 14 9 27 13 30 13 11 11 57 -3 70 -9 7 -16
18 -16 24 0 6 5 4 10 -4 8 -13 10 -13 10 2 0 9 4 19 9 22 5 4 7 -4 3 -16 -5
-23 -5 -23 16 -4 20 17 22 18 22 2 0 -9 5 -14 10 -11 6 4 8 9 6 13 -2 4 2 15
9 25 8 12 15 14 20 8 3 -6 1 -11 -5 -11 -6 0 -8 -5 -4 -11 4 -8 10 -6 17 7 7
13 7 19 -1 22 -7 2 -12 11 -13 20 0 14 -2 13 -9 -3 -5 -11 -9 -14 -9 -6 -1 10
-4 11 -14 2 -8 -6 -18 -7 -23 -3 -4 4 -3 0 4 -10 9 -11 10 -18 2 -23 -5 -3
-10 -2 -10 4 0 5 -9 9 -19 8 -11 0 -17 -5 -15 -9 3 -4 -2 -8 -11 -8 -10 0 -13
5 -9 12 4 7 3 8 -4 4 -6 -4 -8 -14 -5 -23 5 -12 3 -14 -8 -7 -19 12 -68 12
-66 0 1 -6 -3 -10 -9 -11 -7 0 -21 -11 -31 -24 -15 -19 -22 -21 -28 -11 -5 8
-4 11 3 6 6 -3 13 -2 16 3 4 5 -2 8 -11 7 -25 -4 -23 -30 2 -34 13 -2 29 8 43
28 27 36 69 40 97 9 17 -18 17 -24 6 -52 -25 -64 -25 -65 15 -82 49 -20 66
-16 75 18 11 41 28 57 60 57 40 0 61 -25 58 -69 -4 -51 6 -61 57 -61 l44 0 0
40 c0 97 98 109 118 15 8 -39 10 -40 46 -38 56 4 66 15 54 64 -9 33 -8 43 7
59 38 42 83 34 105 -20 15 -37 43 -39 84 -6 l30 23 -22 31 c-29 40 -28 66 4
91 34 27 37 27 80 -11 40 -35 52 -33 88 16 l20 27 -32 30 c-68 64 -15 146 65
99 19 -11 36 -20 39 -20 9 0 44 65 44 81 0 10 -16 23 -39 33 -46 18 -58 44
-39 83 12 26 18 28 68 28 l54 0 9 44 c10 51 2 61 -55 61 -42 0 -51 10 -51 55
0 44 7 52 58 59 24 4 47 11 50 16 3 5 3 27 -1 49 l-7 41 -53 0 c-44 0 -55 4
-64 21 -19 35 -8 62 35 85 43 22 46 35 19 86 -17 32 -32 34 -75 12 -37 -19
-67 -10 -80 23 -11 28 -2 48 36 81 l26 23 -21 29 c-37 52 -57 56 -94 21 -39
-38 -58 -39 -86 -4 l-21 27 30 26 c39 31 39 56 2 106 -36 50 -33 89 9 127 40
36 72 34 117 -7 l38 -34 1 73 c1 52 7 86 23 121 38 84 48 98 81 121 30 21 34
21 69 8 32 -13 34 -13 17 0 -11 8 -26 15 -34 15 -50 0 67 57 137 66 69 9 66
29 -8 61 -85 37 -103 90 -51 155 21 27 40 29 120 13 53 -10 71 9 77 83 6 65
-5 93 -36 91 -10 0 -8 -3 7 -10 18 -7 23 -15 20 -36 -2 -23 -7 -27 -28 -25
-30 4 -50 27 -50 59 0 13 -6 24 -15 24 -23 2 -28 4 -52 17 -19 11 -23 22 -25
70 l-2 57 -3 -55 c-2 -30 -6 -62 -10 -70 -3 -8 -5 -34 -4 -57 2 -33 -2 -44
-18 -52 -45 -25 -46 -22 -46 167 0 154 -3 188 -24 266 -59 224 -199 432 -386
573 -121 91 -318 172 -462 189 -56 6 -211 13 -216 9z m249 -105 c446 -97 754
-473 754 -920 0 -163 -68 -380 -161 -517 -43 -63 -150 -175 -219 -228 -62 -48
-190 -115 -265 -138 -345 -109 -710 -17 -956 239 -105 111 -192 254 -218 361
-5 21 -16 65 -25 98 -32 121 -26 312 15 450 106 357 415 617 794 668 50 7 228
-1 281 -13z m-1486 -924 c28 -10 34 -18 32 -35 -5 -35 15 -51 68 -51 44 0 51
-3 78 -37 38 -50 54 -81 47 -93 -3 -6 -2 -10 4 -10 12 0 31 -87 31 -140 0 -31
-4 -40 -17 -41 -17 -1 -16 -2 0 -6 15 -4 17 -11 12 -36 -22 -101 -118 -217
-219 -264 -54 -25 -73 -28 -156 -28 -82 0 -103 4 -152 27 -175 81 -263 270
-213 454 32 118 132 223 248 259 53 17 191 17 237 1z m90 -48 l35 -23 -28 -3
c-39 -5 -57 4 -57 28 0 25 7 25 50 -2z m303 -398 c4 -15 0 -20 -14 -20 -12 0
-19 7 -19 20 0 11 6 20 14 20 7 0 16 -9 19 -20z m1421 -466 c23 -22 20 -71 -3
-84 -29 -15 -30 -14 -24 29 5 34 2 39 -18 45 -23 7 -23 8 -4 16 28 12 32 12
49 -6z m-148 -68 c-7 -30 -44 -43 -75 -26 -12 6 -21 14 -21 18 0 7 91 40 99
35 2 -1 1 -13 -3 -27z m-226 -36 c-18 -12 -67 -13 -73 -2 -3 4 16 8 42 9 32 2
42 0 31 -7z m293 -18 c-6 -26 23 -92 41 -92 8 0 27 5 42 10 22 9 29 8 37 -5 5
-9 18 -20 30 -25 15 -6 17 -9 6 -9 -9 -1 -24 8 -34 19 -16 18 -20 18 -51 5
-19 -8 -34 -12 -34 -9 0 3 -5 2 -12 -2 -8 -5 -7 -9 5 -13 14 -5 11 -9 -12 -18
-26 -9 -29 -9 -23 6 5 14 4 14 -13 1 -10 -8 -16 -10 -12 -3 4 6 3 14 -2 17 -5
4 -11 -2 -13 -11 -3 -12 -9 -2 -18 26 -12 37 -12 47 1 69 11 20 49 50 66 52 0
0 -1 -8 -4 -18z m93 -29 c-8 -8 -46 22 -46 36 0 10 8 7 25 -9 14 -13 23 -25
21 -27z m-56 -123 c0 -5 5 -10 11 -10 5 0 7 5 3 12 -5 7 -3 8 5 3 9 -5 10 -10
2 -18 -7 -7 -14 -7 -24 1 -8 7 -18 8 -22 4 -5 -4 -5 -1 -1 6 9 14 26 16 26 2z
m120 3 c0 -5 -16 -18 -35 -31 -44 -28 -46 -15 -2 15 37 25 37 25 37 16z m304
-402 c-2 -3 -12 3 -22 13 -16 17 -16 18 5 5 12 -7 20 -15 17 -18z m51 -11 c13
-6 15 -9 5 -9 -8 0 -22 4 -30 9 -18 12 -2 12 25 0z m-565 -143 c0 -13 -7 -32
-16 -43 -15 -18 -15 -18 -5 3 6 12 11 31 11 42 0 12 2 21 5 21 3 0 5 -10 5
-23z m-340 -486 c0 -6 -4 -12 -8 -15 -5 -3 -9 1 -9 9 0 8 4 15 9 15 4 0 8 -4
8 -9z m271 -8 c13 -16 12 -17 -3 -4 -10 7 -18 15 -18 17 0 8 8 3 21 -13z"/>
<path d="M3473 2666 c-39 -18 -53 -43 -53 -98 1 -62 36 -98 97 -98 40 0 56 13
48 39 -5 17 -10 19 -26 11 -13 -8 -25 -7 -40 0 -17 9 -20 19 -17 58 l3 47 38
0 c27 0 39 5 43 18 7 23 6 23 -31 31 -17 3 -44 -1 -62 -8z"/>
<path d="M3600 2570 l0 -100 30 0 c28 0 30 3 30 35 0 43 10 44 32 5 9 -16 28
-32 43 -36 30 -7 30 -7 39 24 5 16 3 22 -7 22 -8 0 -20 7 -27 15 -10 13 -10
19 4 33 9 10 16 30 16 45 0 38 -34 57 -102 57 l-58 0 0 -100z m100 42 c0 -19
-18 -42 -32 -42 -4 0 -8 14 -8 30 0 23 4 30 20 30 13 0 20 -7 20 -18z"/>
<path d="M3800 2571 l0 -98 70 0 c67 0 70 1 70 24 0 20 -5 23 -40 23 -34 0
-40 3 -40 21 0 13 6 20 18 18 32 -3 42 1 42 16 0 15 -10 19 -42 16 -12 -2 -18
5 -18 18 0 17 6 21 34 21 25 0 35 5 39 20 5 19 0 20 -64 20 l-69 0 0 -99z"/>
<path d="M3995 2613 c-9 -32 -21 -71 -26 -87 -14 -46 -12 -58 14 -54 14 2 23
11 25 26 5 32 49 31 62 -2 7 -19 16 -24 43 -24 l34 0 -31 99 -31 99 -37 0
c-37 0 -38 -1 -53 -57z m55 -39 c0 -15 -6 -24 -15 -24 -16 0 -19 17 -9 44 9
22 24 10 24 -20z"/>
<path d="M4140 2646 c0 -19 4 -23 20 -19 18 5 19 -1 22 -73 l3 -79 30 0 29 0
1 75 c0 70 2 75 23 78 14 2 22 10 22 23 0 17 -8 19 -75 19 -73 0 -75 -1 -75
-24z"/>
<path d="M4312 2573 l3 -98 30 0 30 0 2 98 2 97 -35 0 -35 0 3 -97z"/>
<path d="M4434 2573 l33 -98 33 0 c33 0 35 1 56 70 38 124 38 125 9 125 -18 0
-25 -5 -25 -20 0 -34 -22 -122 -28 -115 -4 4 -14 34 -22 68 -16 61 -17 62 -52
65 l-37 3 33 -98z"/>
<path d="M4618 2571 l3 -98 67 1 c61 2 67 4 70 24 3 20 -1 22 -37 22 -35 0
-41 3 -41 21 0 14 6 19 18 17 27 -4 45 11 31 28 -8 10 -16 11 -30 3 -16 -8
-19 -6 -19 16 0 22 4 25 35 25 28 0 35 4 35 20 0 18 -7 20 -67 20 l-68 0 3
-99z"/>
<path d="M2617 2466 c-67 -18 -126 -62 -162 -121 -27 -43 -30 -57 -30 -129 0
-92 15 -133 72 -189 56 -57 97 -72 189 -72 72 0 86 3 130 30 31 20 63 52 89
90 39 58 40 63 40 142 0 46 4 84 10 86 6 2 2 3 -7 2 -12 -2 -24 9 -34 31 -19
40 -84 101 -128 119 -50 21 -117 25 -169 11z m129 -108 c10 -11 -51 -98 -68
-98 -10 0 -23 -8 -29 -17 -8 -14 -23 -18 -67 -16 -32 1 -58 2 -60 2 -6 2 30
77 46 95 28 31 73 47 125 43 26 -2 50 -6 53 -9z m80 -85 c8 -18 14 -47 14 -65
0 -35 -37 -109 -57 -115 -18 -6 -56 76 -57 122 0 25 9 56 24 82 23 41 24 42
43 25 11 -9 26 -31 33 -49z m-156 -100 c23 -16 51 -45 61 -66 19 -36 19 -38 2
-45 -34 -13 -100 -5 -136 17 -30 18 -77 88 -77 114 0 4 24 7 54 7 42 0 63 -6
96 -27z"/>
<path d="M2996 2325 c-11 -8 -15 -15 -9 -15 6 0 16 7 23 15 16 19 11 19 -14 0z"/>
<path d="M2990 2150 c-8 -5 -10 -10 -5 -10 6 0 17 5 25 10 8 5 11 10 5 10 -5
0 -17 -5 -25 -10z"/>
<path d="M4492 1515 c-12 -15 -22 -33 -22 -39 0 -6 4 -4 10 4 5 8 12 12 15 8
3 -3 -1 -12 -9 -20 -9 -10 -11 -20 -5 -29 7 -11 9 -10 10 6 0 18 1 19 8 2 4
-10 9 -17 12 -15 3 2 13 -3 23 -11 14 -12 16 -12 10 3 -4 9 -1 16 6 16 9 0 10
3 1 14 -6 7 -17 30 -24 51 l-13 38 -22 -28z m29 -32 c22 -45 22 -46 11 -39 -6
3 -13 0 -16 -6 -3 -7 -3 -2 0 11 5 17 3 21 -7 16 -9 -6 -11 -4 -6 7 3 9 0 21
-6 27 -7 7 -7 11 -1 11 6 0 17 -12 25 -27z"/>
<path d="M3606 3575 c-4 -14 -21 -34 -39 -45 -17 -11 -26 -20 -19 -20 19 0 72
55 72 74 0 24 -7 19 -14 -9z"/>
<path d="M4548 3583 c7 -3 16 -2 19 1 4 3 -2 6 -13 5 -11 0 -14 -3 -6 -6z"/>
<path d="M4772 3570 c-18 -29 -15 -38 4 -12 9 13 14 25 12 27 -2 2 -9 -5 -16
-15z"/>
<path d="M4751 3512 c-1 -29 15 -62 43 -84 34 -28 39 -20 5 10 -17 15 -34 43
-39 62 -6 25 -8 28 -9 12z"/>
<path d="M4928 3455 c-26 -25 -44 -45 -39 -45 4 0 25 18 46 40 21 22 47 40 56
40 18 0 99 -85 99 -103 0 -5 -19 -28 -42 -50 l-43 -41 45 36 c25 19 46 44 48
54 3 23 -82 114 -106 114 -10 0 -38 -21 -64 -45z"/>
<path d="M5472 3493 c-19 -4 -23 -9 -18 -28 4 -17 1 -24 -14 -28 -15 -4 -22 1
-26 20 -5 19 -11 23 -28 19 -11 -3 -25 -6 -30 -6 -4 0 -5 -12 -2 -27 10 -36
-13 -50 -35 -22 -13 18 -19 20 -37 10 -24 -13 -28 -31 -11 -48 6 -6 8 -16 5
-22 -11 -17 -34 -13 -45 7 -9 16 -11 15 -32 -5 -22 -22 -22 -23 -4 -43 14 -16
16 -23 7 -32 -10 -10 -17 -10 -33 0 -18 11 -23 11 -35 -5 -19 -25 -17 -41 6
-48 22 -7 24 -13 11 -34 -6 -10 -13 -11 -29 -2 -23 12 -26 9 -36 -31 -5 -23
-3 -28 12 -28 24 0 32 -8 25 -26 -3 -9 -13 -12 -29 -8 -22 6 -24 3 -24 -30 0
-32 3 -36 25 -36 15 0 25 -6 25 -15 0 -8 -11 -17 -25 -21 -26 -6 -29 -14 -19
-51 5 -18 11 -21 35 -16 22 4 29 2 29 -10 0 -9 -9 -19 -20 -22 -23 -7 -24 -15
-8 -50 12 -26 23 -32 33 -15 9 15 35 12 35 -5 0 -7 -8 -18 -17 -23 -16 -9 -16
-12 0 -36 20 -30 29 -32 47 -11 10 12 16 13 27 4 11 -10 11 -15 -3 -30 -20
-23 -9 -41 39 -60 18 -7 34 -15 37 -19 3 -3 17 -11 32 -17 26 -12 28 -11 34
13 9 34 40 28 37 -8 -1 -21 4 -28 24 -33 26 -6 43 6 43 33 0 6 10 12 21 12 17
0 20 -5 17 -25 -5 -23 -2 -25 29 -25 32 0 34 2 31 27 -4 38 29 45 38 8 5 -21
11 -24 28 -19 32 10 39 20 27 42 -16 30 18 40 39 12 16 -21 16 -21 40 -2 21
17 22 22 11 36 -11 13 -11 19 0 32 12 15 15 14 31 -5 l17 -22 21 21 c24 24 25
36 5 44 -17 6 -19 15 -5 36 7 12 12 12 29 -4 19 -17 20 -17 36 8 18 27 13 46
-11 46 -9 0 -14 7 -12 18 2 11 13 17 32 17 20 0 31 6 37 20 12 31 11 33 -13
37 -13 2 -24 11 -26 21 -3 13 3 17 27 17 28 0 31 3 31 30 0 25 -4 30 -24 30
-15 0 -26 7 -29 19 -3 15 2 20 23 25 26 5 28 8 21 33 -6 22 -13 27 -33 25 -36
-3 -45 25 -13 40 23 10 23 12 9 39 -13 25 -17 27 -34 17 -15 -10 -22 -10 -32
0 -11 11 -9 17 9 32 23 18 23 18 4 41 -18 23 -20 23 -39 6 -17 -16 -20 -16
-32 -2 -11 13 -10 19 4 34 16 17 15 19 -10 36 -26 17 -28 17 -44 -5 -15 -20
-17 -20 -30 -5 -10 12 -10 19 -2 27 17 17 15 23 -13 36 -34 16 -34 16 -45 -13
-13 -33 -42 -23 -38 14 3 23 -1 26 -29 29 -30 3 -33 1 -33 -23 0 -37 -34 -30
-38 8 -2 15 -6 26 -10 26 -4 -1 -18 -4 -30 -6z m-2 -128 c0 -8 -4 -15 -9 -15
-13 0 -22 16 -14 24 11 11 23 6 23 -9z m50 5 c0 -5 -7 -10 -15 -10 -8 0 -15 5
-15 10 0 6 7 10 15 10 8 0 15 -4 15 -10z m40 0 c0 -5 -4 -10 -10 -10 -5 0 -10
5 -10 10 0 6 5 10 10 10 6 0 10 -4 10 -10z m-138 -15 c0 -5 -5 -11 -11 -13 -6
-2 -11 4 -11 13 0 9 5 15 11 13 6 -2 11 -8 11 -13z m188 5 c0 -5 -7 -10 -15
-10 -8 0 -15 5 -15 10 0 6 7 10 15 10 8 0 15 -4 15 -10z m40 -15 c0 -8 -4 -15
-10 -15 -5 0 -10 7 -10 15 0 8 5 15 10 15 6 0 10 -7 10 -15z m-270 -10 c0 -8
-4 -15 -9 -15 -13 0 -22 16 -14 24 11 11 23 6 23 -9z m310 -10 c0 -8 -4 -15
-10 -15 -5 0 -10 7 -10 15 0 8 5 15 10 15 6 0 10 -7 10 -15z m-350 -16 c0 -5
-4 -9 -10 -9 -5 0 -10 7 -10 16 0 8 5 12 10 9 6 -3 10 -10 10 -16z m160 -58
c0 -57 -8 -71 -40 -71 -12 0 -61 91 -54 101 5 8 57 26 82 28 8 1 12 -17 12
-58z m108 38 l23 -9 -27 -47 c-15 -27 -28 -49 -30 -51 -1 -2 -12 0 -25 3 -22
5 -24 10 -21 65 4 59 4 60 30 54 15 -4 37 -11 50 -15z m122 12 c0 -6 -4 -13
-10 -16 -5 -3 -10 1 -10 9 0 9 5 16 10 16 6 0 10 -4 10 -9z m-420 -22 c0 -5
-7 -9 -15 -9 -15 0 -20 12 -9 23 8 8 24 -1 24 -14z m452 -14 c0 -5 -5 -11 -11
-13 -6 -2 -11 4 -11 13 0 9 5 15 11 13 6 -2 11 -8 11 -13z m-40 -76 c-4 -3
-28 -18 -53 -33 -43 -25 -47 -25 -61 -9 -15 16 -13 23 14 71 l31 53 38 -37
c22 -21 36 -41 31 -45z m-450 56 c0 -5 -5 -11 -11 -13 -6 -2 -11 4 -11 13 0 9
5 15 11 13 6 -2 11 -8 11 -13z m137 -37 c23 -42 24 -46 9 -61 -15 -15 -20 -15
-65 10 -26 14 -50 28 -52 30 -8 6 63 73 73 70 5 -2 21 -24 35 -49z m381 22 c0
-5 -4 -10 -10 -10 -5 0 -10 5 -10 10 0 6 5 10 10 10 6 0 10 -4 10 -10z m-540
-20 c0 -5 -7 -10 -15 -10 -8 0 -15 5 -15 10 0 6 7 10 15 10 8 0 15 -4 15 -10z
m561 -23 c-1 -12 -15 -9 -19 4 -3 6 1 10 8 8 6 -3 11 -8 11 -12z m-586 -17 c3
-5 1 -10 -4 -10 -6 0 -11 5 -11 10 0 6 2 10 4 10 3 0 8 -4 11 -10z m115 -31
c34 -21 49 -36 46 -46 -3 -8 -6 -19 -6 -24 0 -5 -18 -9 -40 -9 -22 0 -40 4
-40 9 0 5 -9 7 -20 4 -22 -6 -23 -3 -14 22 6 13 9 14 16 3 7 -9 8 -7 3 7 -8
23 -8 24 -6 48 1 22 2 22 61 -14z m420 -20 c6 -22 9 -43 6 -47 -2 -4 -29 -5
-60 -4 -46 3 -56 7 -62 25 -4 12 -3 23 2 24 5 2 27 14 49 27 22 12 43 21 47
19 4 -2 12 -22 18 -44z m70 26 c0 -8 -4 -15 -10 -15 -5 0 -10 7 -10 15 0 8 5
15 10 15 6 0 10 -7 10 -15z m-620 -25 c0 -5 -2 -10 -4 -10 -3 0 -8 5 -11 10
-3 6 -1 10 4 10 6 0 11 -4 11 -10z m630 -20 c0 -5 -4 -10 -10 -10 -5 0 -10 5
-10 10 0 6 5 10 10 10 6 0 10 -4 10 -10z m-635 -20 c3 -5 1 -10 -4 -10 -6 0
-11 5 -11 10 0 6 2 10 4 10 3 0 8 -4 11 -10z m636 -33 c-13 -13 -26 -3 -16 12
3 6 11 8 17 5 6 -4 6 -10 -1 -17z m-636 -17 c3 -5 1 -10 -4 -10 -6 0 -11 5
-11 10 0 6 2 10 4 10 3 0 8 -4 11 -10z m175 1 c0 -5 3 -16 6 -24 3 -10 -10
-23 -42 -41 -25 -14 -50 -26 -54 -26 -12 0 -33 68 -26 85 6 17 116 22 116 6z
m390 -5 c0 -13 -20 -77 -26 -85 -2 -2 -79 38 -101 53 -1 1 0 12 4 24 5 20 12
22 64 22 43 0 59 -4 59 -14z m70 -21 c0 -8 -4 -15 -10 -15 -5 0 -10 7 -10 15
0 8 5 15 10 15 6 0 10 -7 10 -15z m-628 -20 c0 -5 -5 -11 -11 -13 -6 -2 -11 4
-11 13 0 9 5 15 11 13 6 -2 11 -8 11 -13z m211 -36 c7 -11 2 -29 -17 -62 -22
-37 -31 -45 -44 -38 -21 11 -67 60 -61 64 20 17 96 56 103 54 5 -2 14 -10 19
-18z m261 -8 l48 -29 -35 -38 c-39 -43 -41 -42 -77 23 -19 35 -21 45 -10 58
16 20 17 20 74 -14z m146 19 c0 -5 -4 -10 -10 -10 -5 0 -10 5 -10 10 0 6 5 10
10 10 6 0 10 -4 10 -10z m-602 -21 c-2 -6 -8 -10 -13 -10 -5 0 -11 4 -13 10
-2 6 4 11 13 11 9 0 15 -5 13 -11z m272 -80 c0 -65 -6 -70 -69 -48 -36 13 -36
12 -16 44 8 14 22 36 30 49 10 17 20 23 35 19 17 -5 20 -13 20 -64z m100 24
c14 -27 26 -51 28 -54 4 -8 -54 -29 -79 -29 -16 0 -19 8 -19 59 0 59 1 62 41
70 3 0 16 -20 29 -46z m211 34 c-1 -12 -15 -9 -19 4 -3 6 1 10 8 8 6 -3 11 -8
11 -12z m-567 -28 c-3 -5 -10 -7 -15 -3 -5 3 -7 10 -3 15 3 5 10 7 15 3 5 -3
7 -10 3 -15z m546 -14 c0 -8 -4 -15 -10 -15 -5 0 -10 7 -10 15 0 8 5 15 10 15
6 0 10 -7 10 -15z m-519 -18 c-1 -12 -15 -9 -19 4 -3 6 1 10 8 8 6 -3 11 -8
11 -12z m489 -17 c0 -5 -4 -10 -10 -10 -5 0 -10 5 -10 10 0 6 5 10 10 10 6 0
10 -4 10 -10z m-460 -20 c0 -5 -2 -10 -4 -10 -3 0 -8 5 -11 10 -3 6 -1 10 4
10 6 0 11 -4 11 -10z m430 -9 c0 -6 -4 -13 -10 -16 -5 -3 -10 1 -10 9 0 9 5
16 10 16 6 0 10 -4 10 -9z m-390 -15 c0 -3 -4 -8 -10 -11 -5 -3 -10 -1 -10 4
0 6 5 11 10 11 6 0 10 -2 10 -4z m350 -16 c0 -5 -4 -10 -10 -10 -5 0 -10 5
-10 10 0 6 5 10 10 10 6 0 10 -4 10 -10z m-315 -10 c3 -5 1 -10 -4 -10 -6 0
-11 5 -11 10 0 6 2 10 4 10 3 0 8 -4 11 -10z m275 -10 c0 -5 -4 -10 -10 -10
-5 0 -10 5 -10 10 0 6 5 10 10 10 6 0 10 -4 10 -10z m-230 -10 c0 -5 -4 -10
-10 -10 -5 0 -10 5 -10 10 0 6 5 10 10 10 6 0 10 -4 10 -10z m190 -11 c0 -5
-7 -9 -15 -9 -15 0 -20 12 -9 23 8 8 24 -1 24 -14z m-140 1 c0 -5 -7 -10 -16
-10 -8 0 -12 5 -9 10 3 6 10 10 16 10 5 0 9 -4 9 -10z m41 -13 c-13 -13 -26
-3 -16 12 3 6 11 8 17 5 6 -4 6 -10 -1 -17z m49 8 c0 -8 -4 -15 -10 -15 -5 0
-10 7 -10 15 0 8 5 15 10 15 6 0 10 -7 10 -15z m-236 -46 c-3 -5 -14 -9 -25
-9 -17 0 -18 3 -9 21 9 16 14 18 26 9 7 -7 11 -16 8 -21z"/>
<path d="M2631 3412 c47 -41 89 -102 110 -165 10 -29 18 -43 19 -32 0 53 -90
189 -144 217 -12 5 -5 -3 15 -20z"/>
<path d="M6522 3424 c-42 -29 -15 -114 36 -114 21 0 62 27 62 41 0 5 -9 0 -20
-11 -36 -36 -90 -16 -90 35 0 51 54 71 90 35 11 -11 20 -16 20 -11 0 13 -41
41 -60 41 -9 0 -26 -7 -38 -16z"/>
<path d="M4848 3403 c7 -3 16 -2 19 1 4 3 -2 6 -13 5 -11 0 -14 -3 -6 -6z"/>
<path d="M3331 3358 c-1 -9 -15 -28 -32 -42 -17 -14 -27 -26 -22 -26 17 0 65
58 60 72 -4 9 -6 8 -6 -4z"/>
<path d="M3055 3308 c-46 -69 -45 -89 5 -117 49 -27 54 -21 5 8 -42 25 -43 41
-7 98 36 58 55 62 104 23 21 -18 41 -30 43 -28 8 8 -78 68 -97 68 -10 0 -32
-22 -53 -52z"/>
<path d="M2620 3316 c0 -2 8 -10 18 -17 15 -13 16 -12 3 4 -13 16 -21 21 -21
13z"/>
<path d="M4994 3276 c-3 -8 -4 -23 -2 -33 3 -11 6 -6 9 15 6 34 2 42 -7 18z"/>
<path d="M2676 3215 c8 -37 14 -45 14 -19 0 10 -5 26 -10 34 -8 11 -9 7 -4
-15z"/>
<path d="M5000 3212 c0 -15 48 -62 64 -62 6 0 1 7 -11 15 -12 9 -29 26 -38 38
-8 12 -15 16 -15 9z"/>
<path d="M2759 3150 c-6 -45 -4 -58 7 -48 3 3 4 26 2 49 l-3 44 -6 -45z"/>
<path d="M3121 3150 c14 -31 19 -36 19 -24 0 6 -7 19 -16 30 -14 18 -14 18 -3
-6z"/>
<path d="M2686 3115 c-3 -9 -6 -22 -5 -28 0 -7 5 -1 10 12 5 13 8 26 5 28 -2
2 -6 -3 -10 -12z"/>
<path d="M6385 3121 c-16 -4 -43 -15 -60 -24 -36 -19 -370 -354 -336 -337 15
8 52 11 100 8 77 -4 111 -17 234 -85 56 -31 138 -41 189 -24 50 16 117 78 139
125 12 26 19 65 19 104 0 112 -61 196 -166 228 -51 15 -72 16 -119 5z"/>
<path d="M2741 3050 c-24 -83 -67 -141 -142 -191 -24 -16 -41 -29 -36 -29 15
0 82 48 114 81 37 39 86 141 80 167 -2 10 -9 -1 -16 -28z"/>
<path d="M3130 3066 c0 -7 -12 -26 -27 -40 -22 -22 -35 -27 -64 -24 -21 2 -35
0 -33 -4 3 -5 20 -8 39 -8 24 0 42 9 64 31 27 27 41 59 26 59 -3 0 -5 -6 -5
-14z"/>
<path d="M1806 3035 c-81 -42 -93 -145 -25 -211 30 -29 31 -29 169 -32 l140
-4 -34 34 c-18 18 -41 56 -50 83 -29 82 -46 110 -76 128 -35 21 -86 22 -124 2z"/>
<path d="M2906 3008 c-9 -12 -16 -27 -16 -33 1 -5 7 1 15 15 7 14 24 28 37 31
22 7 22 7 1 8 -12 1 -29 -9 -37 -21z"/>
<path d="M2609 2963 l-34 -38 38 34 c34 33 42 41 34 41 -2 0 -19 -17 -38 -37z"/>
<path d="M6756 2954 c-7 -19 10 -44 29 -44 19 0 36 25 29 44 -3 9 -16 16 -29
16 -13 0 -26 -7 -29 -16z"/>
<path d="M2875 2924 c-8 -44 6 -61 55 -69 34 -5 34 -5 -5 8 -39 13 -40 14 -37
55 3 52 -3 55 -13 6z"/>
<path d="M1416 2814 c-22 -21 -20 -67 2 -87 40 -36 102 -9 102 45 0 49 -69 78
-104 42z m83 -8 c17 -20 10 -67 -11 -80 -28 -17 -72 4 -76 37 -4 36 13 57 48
57 15 0 33 -6 39 -14z"/>
<path d="M2378 2803 c6 -2 18 -2 25 0 6 3 1 5 -13 5 -14 0 -19 -2 -12 -5z"/>
<path d="M2453 2803 c9 -2 23 -2 30 0 6 3 -1 5 -18 5 -16 0 -22 -2 -12 -5z"/>
<path d="M1764 2706 c-98 -45 -156 -154 -134 -252 24 -106 92 -175 193 -196
134 -28 253 64 281 217 18 96 88 199 158 234 l43 21 -245 0 c-236 0 -247 -1
-296 -24z"/>
<path d="M5219 2653 c-13 -17 -13 -17 6 -3 11 8 22 16 24 17 2 2 0 3 -6 3 -6
0 -17 -8 -24 -17z"/>
<path d="M1395 2607 c-13 -10 -16 -21 -12 -39 8 -30 31 -42 57 -28 26 14 31
35 14 59 -17 24 -33 26 -59 8z"/>
<path d="M5636 2413 c-10 -24 -7 -33 9 -33 8 0 15 -7 15 -15 0 -8 -9 -15 -20
-15 -13 0 -20 -7 -20 -19 0 -10 9 -21 20 -24 11 -3 20 -10 20 -16 0 -6 -9 -11
-20 -11 -11 0 -20 -6 -20 -12 0 -23 18 -41 34 -35 10 4 16 1 16 -7 0 -8 -7
-17 -15 -20 -24 -9 0 -49 25 -41 24 8 35 -11 13 -23 -26 -15 1 -44 33 -36 24
6 34 -9 13 -21 -7 -5 -4 -14 7 -27 17 -18 19 -18 30 -3 16 21 34 12 27 -14 -7
-26 27 -38 44 -15 14 19 28 12 28 -14 0 -10 9 -18 23 -20 17 -3 22 2 22 17 0
27 20 27 27 0 4 -12 11 -18 20 -15 8 3 17 6 19 6 2 0 4 7 4 16 0 12 6 15 21
11 18 -5 20 -2 14 21 -3 15 -11 29 -16 30 -5 2 -9 10 -9 17 0 8 -5 17 -11 21
-12 7 -79 -26 -79 -39 0 -4 -6 -5 -12 0 -7 4 -17 8 -23 8 -5 0 -10 5 -10 12 0
6 -3 15 -7 19 -5 4 -8 15 -8 25 0 9 -11 24 -25 33 -34 22 -31 42 6 62 44 22
61 5 36 -39 l-19 -32 31 29 c17 17 31 33 31 38 0 4 -13 22 -30 40 -21 24 -29
28 -30 16 0 -19 -67 -61 -75 -47 -4 5 -15 9 -25 9 -10 0 -26 7 -34 16 -18 18
-22 74 -5 74 6 0 9 7 5 15 -3 9 0 15 9 15 22 0 18 13 -10 34 -33 25 -72 29
-79 9z m114 -213 c0 -5 -5 -10 -11 -10 -5 0 -7 5 -4 10 3 6 8 10 11 10 2 0 4
-4 4 -10z m20 -30 c0 -5 -2 -10 -4 -10 -3 0 -8 5 -11 10 -3 6 -1 10 4 10 6 0
11 -4 11 -10z m45 -39 c3 -5 1 -12 -5 -16 -5 -3 -10 1 -10 9 0 18 6 21 15 7z
m30 -21 c3 -5 1 -10 -4 -10 -6 0 -11 5 -11 10 0 6 2 10 4 10 3 0 8 -4 11 -10z
m105 -24 c0 -3 -4 -8 -10 -11 -5 -3 -10 -1 -10 4 0 6 5 11 10 11 6 0 10 -2 10
-4z m30 0 c0 -3 -4 -8 -10 -11 -5 -3 -10 -1 -10 4 0 6 5 11 10 11 6 0 10 -2
10 -4z"/>
<path d="M1982 2074 c-28 -19 -30 -74 -4 -97 42 -38 102 -8 102 51 0 32 -29
62 -60 62 -9 0 -26 -7 -38 -16z m72 -20 c21 -21 20 -40 -4 -64 -19 -19 -40
-18 -67 3 -29 22 -2 77 37 77 10 0 26 -7 34 -16z"/>
<path d="M5264 2026 c-14 -34 -25 -46 -46 -50 -30 -6 -39 -26 -12 -26 25 0 54
19 54 36 0 8 7 29 16 45 8 17 13 33 11 35 -3 3 -13 -15 -23 -40z"/>
<path d="M2020 1886 c0 -2 7 -6 15 -10 8 -3 15 -1 15 4 0 6 -7 10 -15 10 -8 0
-15 -2 -15 -4z"/>
<path d="M5000 1874 c0 -12 37 -54 47 -54 4 0 -4 12 -18 28 -13 15 -25 29 -26
31 -2 2 -3 0 -3 -5z"/>
<path d="M3189 1853 c-13 -17 -13 -17 6 -3 11 8 22 16 24 17 2 2 0 3 -6 3 -6
0 -17 -8 -24 -17z"/>
<path d="M3282 1854 c15 -8 34 -27 42 -42 9 -15 15 -21 16 -14 0 17 -55 72
-72 72 -7 -1 -1 -7 14 -16z"/>
<path d="M2115 1840 c-3 -5 0 -7 9 -4 26 10 35 -4 23 -36 -9 -23 -8 -33 1 -42
14 -14 84 -19 76 -6 -3 4 0 8 6 8 7 0 9 -7 6 -16 -3 -9 -6 -18 -6 -20 0 -3 -4
-3 -9 0 -5 4 -6 -9 -1 -29 4 -19 5 -37 1 -40 -3 -4 1 -5 9 -3 11 2 16 -7 18
-29 2 -18 -1 -33 -7 -33 -5 0 -6 -11 -2 -27 5 -20 2 -38 -11 -61 -10 -19 -14
-30 -8 -27 6 4 16 17 21 29 9 19 9 18 6 -6 -2 -15 0 -25 4 -22 5 3 9 0 9 -5 0
-6 5 -11 12 -11 9 0 9 3 0 12 -7 7 -12 21 -11 33 1 17 2 16 9 -5 7 -23 8 -23
9 -3 1 12 -4 25 -9 28 -6 4 -7 11 -4 17 5 7 2 8 -6 3 -10 -6 -12 -1 -7 25 4
18 7 43 7 57 0 13 4 22 9 18 5 -3 12 -1 16 5 4 6 11 8 16 4 5 -3 7 -10 3 -15
-3 -5 -10 -7 -15 -4 -10 7 -13 -1 -24 -48 -4 -19 -2 -26 5 -22 6 4 9 1 8 -6
-2 -7 2 -13 9 -14 6 0 14 -3 18 -7 4 -4 13 -4 20 -2 7 3 16 1 20 -5 4 -7 0 -8
-11 -4 -11 4 -15 3 -10 -5 4 -7 -1 -10 -14 -7 -13 3 -20 -2 -21 -13 0 -9 -2
-25 -4 -34 -2 -10 1 -18 6 -18 5 0 9 11 9 24 0 18 7 25 30 30 24 4 30 11 30
32 0 23 -3 25 -29 19 -23 -5 -32 -2 -40 14 -16 30 -13 41 14 51 28 11 31 19
12 44 -12 16 -16 17 -34 5 -18 -10 -24 -10 -37 0 -20 17 -21 47 -1 55 19 7 19
30 0 46 -13 10 -19 10 -33 -4 -23 -20 -36 -20 -52 -1 -10 12 -10 22 -2 39 7
17 7 27 -1 35 -14 14 -34 14 -42 1z"/>
<path d="M5056 1804 c-11 -28 -6 -54 10 -54 8 0 12 -4 9 -10 -3 -5 -2 -10 3
-10 12 0 22 24 22 50 0 26 -36 45 -44 24z"/>
<path d="M3341 1764 c0 -11 3 -14 6 -6 3 7 2 16 -1 19 -3 4 -6 -2 -5 -13z"/>
<path d="M3292 1688 c-45 -53 -46 -64 -2 -103 18 -16 23 -17 30 -5 15 23 12
28 -20 45 -16 9 -30 19 -30 22 0 4 17 24 37 45 20 21 35 39 32 41 -2 2 -23
-18 -47 -45z"/>
<path d="M5040 1695 c-7 -8 -27 -19 -44 -24 -29 -9 -29 -9 -5 -10 15 -1 35 9
49 24 13 14 21 25 18 25 -3 0 -11 -7 -18 -15z"/>
<path d="M2127 1639 c22 -25 48 -69 58 -98 9 -29 19 -50 21 -48 13 13 -40 117
-78 152 l-42 40 41 -46z"/>
<path d="M3464 1634 c-10 -8 -12 -12 -4 -8 8 5 33 11 55 15 l40 6 -36 2 c-19
0 -44 -6 -55 -15z"/>
<path d="M3583 1613 c15 -16 27 -35 27 -43 0 -7 3 -10 7 -7 10 10 -18 57 -42
69 -15 8 -14 4 8 -19z"/>
<path d="M3414 1575 c-18 -27 -51 -33 -74 -12 -12 10 -12 9 -1 -5 21 -28 57
-22 81 12 12 17 19 30 16 30 -3 0 -13 -11 -22 -25z"/>
<path d="M2274 1532 c4 -3 14 -7 22 -8 9 -1 13 0 10 4 -4 3 -14 7 -22 8 -9 1
-13 0 -10 -4z"/>
<path d="M3786 1499 c-14 -11 -26 -25 -26 -31 0 -6 8 0 18 12 9 12 33 25 52
30 30 7 31 8 9 9 -15 1 -38 -8 -53 -20z"/>
<path d="M3587 1475 c-9 -19 -14 -42 -11 -50 7 -17 43 -40 51 -32 2 3 -4 8
-15 11 -29 9 -34 33 -16 68 8 16 14 32 12 34 -3 2 -12 -12 -21 -31z"/>
<path d="M2073 1483 c9 -2 23 -2 30 0 6 3 -1 5 -18 5 -16 0 -22 -2 -12 -5z"/>
<path d="M2120 1486 c0 -2 18 -6 39 -8 22 -2 37 0 35 4 -5 8 -74 11 -74 4z"/>
<path d="M2128 1453 c39 -2 72 -6 72 -8 0 -2 -5 -15 -11 -29 -10 -22 -8 -31
15 -66 l26 -40 -29 -52 -30 -52 -55 3 c-54 2 -55 2 -70 -32 -8 -19 -13 -49
-12 -66 1 -18 -4 -37 -11 -43 -10 -8 -12 -2 -7 36 4 28 3 46 -3 46 -6 0 -9
-12 -6 -27 3 -26 3 -27 -6 -5 -11 23 -27 32 -18 9 3 -9 -5 -12 -29 -12 -18 1
-32 -1 -32 -4 1 -3 -2 -19 -7 -35 l-8 -29 -12 23 c-12 22 -12 22 -17 2 -7 -26
-1 -32 29 -32 18 0 23 5 23 25 0 34 38 55 57 29 7 -10 13 -24 13 -31 0 -7 11
-13 26 -13 24 0 26 3 22 31 -4 23 0 33 16 41 16 9 23 6 41 -17 20 -24 24 -26
44 -13 15 9 20 19 16 33 -11 37 -10 47 7 58 13 9 21 7 38 -8 20 -18 21 -18 43
3 l21 22 -22 16 c-26 18 -27 27 -7 48 13 12 21 13 41 4 20 -10 27 -9 35 3 15
24 10 46 -12 52 -15 4 -20 12 -17 29 2 18 10 24 36 26 24 2 32 8 32 23 0 31
-3 34 -35 35 -16 1 -41 6 -55 12 -14 5 -68 9 -120 9 -83 -1 -86 -1 -22 -4z"/>
<path d="M3746 1435 c-3 -9 -6 -22 -5 -28 0 -7 5 -1 10 12 5 13 8 26 5 28 -2
2 -6 -3 -10 -12z"/>
<path d="M2019 1403 c-13 -16 -12 -17 4 -4 9 7 17 15 17 17 0 8 -8 3 -21 -13z"/>
<path d="M4190 1384 l-25 -15 25 7 c28 7 35 12 29 18 -2 2 -15 -2 -29 -10z"/>
<path d="M3665 1375 c40 -19 50 -18 66 3 13 15 12 16 -3 3 -14 -10 -25 -11
-49 -2 -43 15 -51 13 -14 -4z"/>
<path d="M2170 1360 c0 -12 -79 -100 -90 -100 -4 0 -15 18 -25 40 -22 49 -38
63 -22 19 14 -36 77 -107 77 -87 0 10 3 9 10 -2 9 -13 10 -13 10 0 0 13 1 13
10 0 9 -13 10 -13 10 0 0 12 2 12 9 2 6 -11 10 -10 16 5 10 21 12 29 14 44 0
5 5 8 9 5 5 -3 8 7 7 21 0 15 -6 28 -13 31 -7 2 -10 8 -7 12 3 5 1 11 -5 15
-5 3 -10 1 -10 -5z m23 -37 c-7 -2 -13 -9 -13 -14 0 -6 5 -7 11 -3 6 3 3 -6
-7 -22 -11 -15 -19 -30 -19 -33 0 -8 -65 -9 -69 -2 -2 3 8 15 22 25 14 11 22
14 18 8 -4 -7 -2 -12 3 -12 10 0 15 14 12 33 -1 5 3 6 9 2 5 -3 10 1 10 9 0 9
8 16 18 15 10 0 12 -3 5 -6z"/>
<path d="M2157 1277 c-13 -20 -13 -24 -1 -24 8 0 12 2 9 5 -2 3 0 13 6 23 14
27 4 24 -14 -4z"/>
<path d="M2012 1291 c12 -22 24 -38 26 -36 5 4 -37 75 -44 75 -3 0 6 -18 18
-39z"/>
<path d="M4344 1175 c0 -71 1 -99 3 -62 2 37 2 96 0 130 -2 34 -3 4 -3 -68z"/>
<path d="M4380 1173 c-3 -73 -1 -129 3 -124 4 4 6 64 5 132 l-3 124 -5 -132z"/>
<path d="M1878 1223 c7 -3 16 -2 19 1 4 3 -2 6 -13 5 -11 0 -14 -3 -6 -6z"/>
<path d="M1998 1223 c7 -3 16 -2 19 1 4 3 -2 6 -13 5 -11 0 -14 -3 -6 -6z"/>
<path d="M1943 1213 c9 -2 23 -2 30 0 6 3 -1 5 -18 5 -16 0 -22 -2 -12 -5z"/>
<path d="M3632 1161 c-16 -9 -44 -79 -34 -85 4 -2 27 13 51 33 24 21 40 40 35
43 -22 12 -42 16 -52 9z"/>
<path d="M1650 1151 c0 -6 4 -13 10 -16 6 -3 7 1 4 9 -7 18 -14 21 -14 7z"/>
<path d="M1694 1138 l-19 -23 23 19 c21 18 27 26 19 26 -2 0 -12 -10 -23 -22z"/>
<path d="M1760 1100 c-9 -17 -7 -22 12 -29 24 -9 38 -6 38 9 0 4 -10 6 -22 2
-18 -4 -20 -2 -16 16 8 28 2 28 -12 2z"/>
<path d="M1840 1116 c0 -2 9 -6 20 -9 11 -3 18 -1 14 4 -5 9 -34 13 -34 5z"/>
<path d="M4249 993 c-13 -16 -12 -17 4 -4 16 13 21 21 13 21 -2 0 -10 -8 -17
-17z"/>
<path d="M2560 880 l0 -90 30 0 30 0 0 90 0 90 -30 0 -30 0 0 -90z"/>
<path d="M2657 963 c-4 -3 -7 -44 -7 -91 l0 -84 61 4 c72 5 99 28 99 85 0 47
-14 69 -51 82 -35 12 -92 15 -102 4z m88 -83 c0 -35 -4 -45 -17 -48 -15 -3
-18 4 -18 48 0 44 3 51 18 48 13 -3 17 -13 17 -48z"/>
<path d="M2840 880 l0 -90 65 0 c58 0 65 2 65 20 0 16 -7 20 -35 20 -27 0 -35
4 -35 18 0 13 7 18 23 18 13 -1 22 5 22 14 0 10 -9 14 -26 13 -22 -1 -26 2
-22 18 4 13 14 19 34 19 22 0 29 5 29 20 0 18 -7 20 -60 20 l-60 0 0 -90z"/>
<path d="M3012 908 c-34 -106 -35 -118 -13 -118 11 0 23 9 26 20 4 13 15 20
31 20 17 0 24 -5 24 -20 0 -16 7 -20 36 -20 40 0 40 -11 0 108 -21 62 -25 67
-53 70 -30 3 -32 1 -51 -60z m50 -23 c4 -19 1 -25 -12 -25 -13 0 -16 6 -12 25
2 14 8 25 12 25 4 0 10 -11 12 -25z"/>
<path d="M3584 933 c-17 -18 -19 -77 -1 -91 11 -9 90 -17 110 -12 4 2 12 3 19
4 7 0 13 17 13 39 1 33 -3 40 -24 49 -54 22 -101 26 -117 11z"/>
<path d="M4471 916 c-9 -11 -8 -18 4 -30 19 -19 32 -21 18 -3 -6 6 -9 20 -8
30 4 21 1 21 -14 3z"/>
<path d="M1696 887 c-27 -27 -32 -52 -17 -76 13 -21 37 0 52 46 16 49 -1 64
-35 30z"/>
<path d="M3938 863 c23 -2 59 -2 80 0 20 2 1 4 -43 4 -44 0 -61 -2 -37 -4z"/>
<path d="M4097 863 c18 -2 50 -2 70 0 21 2 7 4 -32 4 -38 0 -55 -2 -38 -4z"/>
<path d="M5284 838 c22 -12 56 -47 75 -76 l35 -52 17 32 c9 18 14 39 11 47 -3
8 -1 12 5 8 13 -8 26 20 16 36 -4 6 0 8 10 4 9 -3 19 -2 22 3 4 6 -30 10 -87
10 -51 0 -104 3 -118 6 -19 4 -15 0 14 -18z m127 -19 c7 -11 9 -10 9 6 0 16 2
17 9 6 7 -10 5 -19 -6 -26 -9 -7 -13 -16 -10 -22 4 -6 0 -18 -7 -28 -12 -17
-14 -16 -32 13 -10 18 -22 32 -26 32 -4 0 -8 8 -8 18 0 13 2 14 9 4 7 -11 9
-11 14 1 7 19 35 16 48 -4z"/>
<path d="M5367 817 c-3 -8 3 -27 14 -43 10 -16 19 -24 20 -19 0 6 2 20 3 32 1
12 -1 28 -6 35 -6 10 -8 10 -8 -2 0 -12 -2 -12 -9 -2 -7 11 -9 11 -14 -1z m29
-29 c0 -10 -1 -18 -3 -18 -1 0 -7 8 -12 18 -7 13 -6 19 2 19 7 0 13 -9 13 -19z"/>
<path d="M5601 856 c2 -2 22 -6 44 -9 28 -5 34 -4 20 3 -19 8 -73 14 -64 6z"/>
<path d="M4287 749 c7 -7 15 -10 18 -7 3 3 -2 9 -12 12 -14 6 -15 5 -6 -5z"/>
<path d="M4320 740 c0 -5 5 -10 11 -10 5 0 7 5 4 10 -3 6 -8 10 -11 10 -2 0
-4 -4 -4 -10z"/>
<path d="M4342 546 l-2 -179 -57 7 c-31 4 -88 20 -127 36 -39 16 -62 23 -52
15 11 -8 24 -15 29 -15 4 0 5 -4 2 -10 -3 -5 0 -7 8 -4 23 8 50 -42 37 -67
-10 -17 -14 -18 -28 -7 -9 7 -13 8 -9 2 4 -7 0 -17 -7 -23 -10 -9 -16 -9 -21
-1 -5 8 -11 8 -19 1 -7 -6 -17 -7 -21 -3 -5 4 -5 1 -1 -6 4 -7 12 -9 18 -6 6
4 8 -1 3 -16 -4 -12 -8 -28 -9 -34 -1 -6 -5 -16 -9 -23 -10 -15 3 -45 17 -40
6 2 11 9 11 16 0 7 7 18 15 24 8 7 16 21 18 32 7 45 12 51 28 31 15 -22 54
-32 54 -15 0 5 -5 7 -12 3 -7 -5 -8 -3 -2 7 10 16 16 49 9 49 -3 0 -11 -15
-18 -32 l-14 -33 1 32 c1 17 4 29 8 26 4 -2 5 4 2 14 -4 13 -3 15 4 5 7 -11
10 -10 16 3 8 23 7 33 -2 18 -6 -9 -11 -7 -19 6 -10 16 -9 19 5 16 9 -2 18 -4
20 -5 1 -2 7 -3 12 -4 6 0 15 -8 20 -16 6 -9 10 -10 10 -3 0 6 8 11 18 10 10
0 19 -7 19 -14 0 -6 -4 -10 -8 -7 -4 2 -6 -4 -4 -14 2 -11 -3 -19 -11 -19 -10
0 -11 4 -3 13 7 8 7 14 -1 19 -10 6 -11 5 -15 -33 -1 -12 -6 -26 -10 -30 -5
-4 -6 0 -3 9 4 9 3 21 -2 28 -5 9 -9 4 -12 -13 -3 -14 -1 -26 4 -26 5 0 6 -6
2 -12 -6 -10 -5 -10 7 -1 12 10 18 10 29 0 12 -10 12 -9 1 5 -16 21 -6 39 16
31 12 -5 15 -2 11 8 -8 21 26 66 37 49 5 -9 4 -11 -3 -6 -7 4 -12 2 -12 -3 0
-6 5 -11 10 -11 6 0 13 0 16 0 5 0 12 72 18 190 1 30 -1 60 -5 65 -4 6 -10 40
-12 75 -2 36 -4 -15 -5 -114z m-165 -253 c0 -9 -4 -10 -10 -4 -13 13 -37 -5
-37 -26 0 -8 -9 -27 -20 -43 -11 -15 -16 -31 -12 -36 3 -5 0 -3 -8 4 -12 10
-12 14 -2 21 7 4 12 12 11 17 -1 5 -1 18 1 29 l1 20 9 -20 c9 -20 9 -20 9 0 1
12 -5 27 -11 35 -11 12 -10 12 3 2 13 -10 19 -9 28 1 14 18 38 18 38 0z"/>
<path d="M4380 672 c0 -26 -5 -53 -11 -59 -7 -7 -8 -17 -3 -25 11 -16 12 -198
2 -191 -5 2 -8 -3 -8 -11 0 -10 6 -13 15 -10 13 5 15 34 15 175 0 93 -2 169
-5 169 -3 0 -5 -22 -5 -48z"/>
<path d="M3603 666 c4 -10 7 -21 7 -26 0 -5 7 -15 15 -24 12 -12 21 -13 40 -4
l24 11 -32 21 c-59 40 -61 41 -54 22z"/>
<path d="M5412 660 c0 -8 4 -26 8 -40 6 -20 8 -21 8 -5 0 11 -3 29 -8 40 -5
12 -8 14 -8 5z"/>
<path d="M1674 595 c-8 -33 12 -57 45 -53 22 3 26 8 26 38 0 32 -3 35 -32 38
-28 3 -33 -1 -39 -23z"/>
<path d="M5430 586 c0 -11 30 -66 36 -66 2 0 -3 15 -12 33 -19 36 -24 44 -24
33z"/>
<path d="M5705 563 c-83 -16 -121 -71 -100 -146 27 -99 182 -101 215 -3 25 77
-41 163 -115 149z"/>
<path d="M3992 515 c26 -27 49 -47 51 -45 2 3 -20 25 -47 50 l-51 44 47 -49z"/>
<path d="M3739 523 c-13 -16 -12 -17 4 -4 16 13 21 21 13 21 -2 0 -10 -8 -17
-17z"/>
<path d="M3700 495 c-7 -9 -11 -17 -9 -20 3 -2 10 5 17 15 14 24 10 26 -8 5z"/>
<path d="M5506 475 c10 -8 23 -15 28 -15 6 0 1 7 -10 15 -10 8 -23 15 -28 15
-6 0 -1 -7 10 -15z"/>
<path d="M3750 420 c-23 -7 -23 -8 -3 -9 12 -1 25 4 28 9 3 6 5 10 3 9 -2 -1
-14 -5 -28 -9z"/>
<path d="M3883 406 c7 -14 13 -23 15 -21 7 6 -9 45 -18 45 -4 0 -3 -11 3 -24z"/>
<path d="M3862 340 c-12 -16 -22 -32 -22 -37 0 -4 11 8 25 27 14 19 25 35 25
37 0 8 -8 0 -28 -27z"/>
<path d="M4226 344 c-3 -9 -4 -19 -1 -22 3 -3 5 1 5 9 0 11 2 11 10 -1 5 -8
10 -10 10 -5 0 6 -4 16 -9 23 -6 11 -10 10 -15 -4z"/>
</g>
</svg>
